<svg width="127" height="44" viewBox="0 0 127 44" fill="none" xmlns="http://www.w3.org/2000/svg">
<path d="M110.846 14.6849V15.8443C110.11 15.8443 109.558 16.0099 109.19 16.3411C108.858 16.6724 108.877 17.1324 109.245 17.7213L123.764 39.3074C124.206 39.9698 124.666 40.5771 125.145 41.1292C125.66 41.6445 126.23 41.9573 126.856 42.0677V43.2271C126.304 43.1903 125.457 43.1535 124.316 43.1167C123.212 43.0431 122.09 43.0063 120.949 43.0063C119.624 43.0063 118.262 43.0431 116.863 43.1167C115.465 43.1535 114.434 43.1903 113.772 43.2271V42.0677C114.508 42.0677 115.042 41.9021 115.373 41.5709C115.741 41.2396 115.741 40.7796 115.373 40.1907L100.853 18.6046C100.228 17.6845 99.694 17.022 99.2523 16.6172C98.8475 16.1755 98.3506 15.9179 97.7617 15.8443V14.6849C98.3874 14.7217 99.3259 14.7769 100.577 14.8505C101.829 14.8873 103.08 14.9057 104.331 14.9057C105.546 14.9057 106.779 14.8873 108.03 14.8505C109.282 14.7769 110.22 14.7217 110.846 14.6849ZM109.576 29.9221C109.576 29.9221 109.594 30.0325 109.631 30.2534C109.705 30.4742 109.76 30.695 109.797 30.9159C109.871 31.1367 109.907 31.2471 109.907 31.2471L107.699 34.0627C106.595 35.4981 105.988 36.823 105.877 38.0376C105.767 39.2154 106.08 40.1723 106.816 40.9084C107.552 41.6077 108.564 42.0125 109.852 42.1229V43.2271C109.153 43.1903 108.288 43.1719 107.257 43.1719C106.264 43.1351 105.288 43.1167 104.331 43.1167C103.374 43.0799 102.565 43.0615 101.902 43.0615C101.093 43.0615 100.375 43.0799 99.7492 43.1167C99.1603 43.1167 98.5898 43.1535 98.0378 43.2271V42.1229C98.8843 41.7917 99.694 41.3132 100.467 40.6875C101.24 40.0251 102.105 39.0865 103.062 37.872L109.576 29.9221ZM125.255 14.6849V15.789C124.482 16.0099 123.672 16.4883 122.826 17.2244C121.979 17.9605 121.096 18.8991 120.176 20.04L114.103 27.6586C114.103 27.6586 114.066 27.5666 113.993 27.3826C113.956 27.1618 113.901 26.9409 113.827 26.7201C113.79 26.4993 113.772 26.3889 113.772 26.3889L116.532 22.69C117.526 21.4018 118.133 20.2608 118.354 19.2671C118.575 18.2734 118.409 17.4637 117.857 16.838C117.342 16.2123 116.422 15.8627 115.097 15.789V14.6849C116.164 14.7217 117.25 14.7585 118.354 14.7953C119.458 14.8321 120.452 14.8505 121.335 14.8505C122.182 14.8505 122.918 14.8321 123.544 14.7953C124.169 14.7585 124.74 14.7217 125.255 14.6849Z" fill="#4A082E"/>
<path d="M86.4301 13.912C89.6689 13.912 92.2085 14.8689 94.0487 16.7828C95.8889 18.6966 96.8091 21.8251 96.8091 26.168H78.6459L78.5354 25.1191H89.8529C89.8897 23.3157 89.7793 21.6594 89.5217 20.1504C89.2641 18.6046 88.8592 17.3717 88.3071 16.4515C87.7551 15.5314 87.019 15.0714 86.0988 15.0714C84.8107 15.0714 83.7065 15.8811 82.7864 17.5005C81.9031 19.1199 81.3694 21.8067 81.1854 25.5608L81.351 25.892C81.3142 26.3337 81.2774 26.7937 81.2406 27.2722C81.2406 27.7506 81.2406 28.2475 81.2406 28.7628C81.2406 31.3023 81.5902 33.3634 82.2895 34.946C83.0256 36.5286 83.9458 37.688 85.0499 38.4241C86.1541 39.1234 87.2766 39.473 88.4175 39.473C89.1905 39.473 89.9818 39.3626 90.7915 39.1418C91.638 38.8841 92.4845 38.4425 93.331 37.8168C94.1775 37.1543 94.9688 36.2342 95.7049 35.0564L96.6987 35.3877C96.257 36.7862 95.5577 38.148 94.6008 39.473C93.6438 40.798 92.4293 41.8837 90.9571 42.7302C89.4849 43.5767 87.7183 44 85.6572 44C83.1545 44 80.9462 43.4663 79.0323 42.399C77.1185 41.3316 75.6095 39.7122 74.5053 37.5407C73.438 35.3693 72.9043 32.6089 72.9043 29.2596C72.9043 25.8368 73.4748 22.9844 74.6157 20.7025C75.7935 18.4206 77.3945 16.7276 79.4188 15.6234C81.4798 14.4825 83.8169 13.912 86.4301 13.912Z" fill="#4A082E"/>
<path d="M67.4499 0V38.0931C67.4499 39.6389 67.7076 40.6878 68.2228 41.2399C68.7749 41.7919 69.695 42.068 70.9832 42.068V43.2273C70.2839 43.1905 69.235 43.1537 67.8364 43.1169C66.4378 43.0433 65.0208 43.0065 63.5854 43.0065C62.15 43.0065 60.6962 43.0433 59.224 43.1169C57.7886 43.1537 56.7029 43.1905 55.9668 43.2273V42.068C57.255 42.068 58.1567 41.7919 58.672 41.2399C59.224 40.6878 59.5001 39.6389 59.5001 38.0931V6.62488C59.5001 4.96866 59.2424 3.7541 58.7272 2.9812C58.2487 2.17149 57.3286 1.76663 55.9668 1.76663V0.607283C57.1446 0.717696 58.2855 0.772902 59.3897 0.772902C60.8987 0.772902 62.334 0.717696 63.6958 0.607283C65.0576 0.460063 66.309 0.257635 67.4499 0Z" fill="#4A082E"/>
<path d="M40.3617 13.912C43.0485 13.912 45.404 14.4089 47.4283 15.4026C49.4525 16.3963 51.0351 17.9974 52.1761 20.2056C53.317 22.4139 53.8875 25.3399 53.8875 28.9836C53.8875 32.6273 53.317 35.5533 52.1761 37.7616C51.0351 39.9331 49.4525 41.5157 47.4283 42.5094C45.404 43.5031 43.0485 44 40.3617 44C37.7486 44 35.4115 43.5031 33.3504 42.5094C31.3261 41.5157 29.7251 39.9331 28.5474 37.7616C27.4064 35.5533 26.8359 32.6273 26.8359 28.9836C26.8359 25.3399 27.4064 22.4139 28.5474 20.2056C29.7251 17.9974 31.3261 16.3963 33.3504 15.4026C35.4115 14.4089 37.7486 13.912 40.3617 13.912ZM40.3617 15.0162C38.8895 15.0162 37.6566 16.1203 36.6628 18.3286C35.6691 20.5001 35.1722 24.0518 35.1722 28.9836C35.1722 33.9155 35.6691 37.4671 36.6628 39.6386C37.6566 41.8101 38.8895 42.8959 40.3617 42.8959C41.8707 42.8959 43.1037 41.8101 44.0606 39.6386C45.0544 37.4671 45.5512 33.9155 45.5512 28.9836C45.5512 24.0518 45.0544 20.5001 44.0606 18.3286C43.1037 16.1203 41.8707 15.0162 40.3617 15.0162Z" fill="#4A082E"/>
<path d="M13.6914 13.912C15.1268 13.912 16.4334 14.0776 17.6111 14.4089C18.8257 14.7033 19.8194 15.0898 20.5923 15.5682C21.5493 16.1571 22.2854 16.8932 22.8006 17.7765C23.3527 18.623 23.6287 19.6168 23.6287 20.7577C23.6287 22.0459 23.2239 23.1132 22.4142 23.9597C21.6045 24.7695 20.5555 25.1743 19.2674 25.1743C17.9792 25.1743 16.9486 24.8063 16.1757 24.0702C15.4028 23.3341 15.0164 22.3403 15.0164 21.089C15.0164 19.9112 15.3844 18.9359 16.1205 18.163C16.8566 17.3533 17.7031 16.8196 18.6601 16.562C18.3656 16.1939 17.924 15.8811 17.3351 15.6234C16.7462 15.3658 16.0837 15.237 15.3476 15.237C14.2067 15.237 13.1945 15.5682 12.3112 16.2307C11.4647 16.8932 10.747 17.8133 10.1581 18.9911C9.56927 20.1688 9.10921 21.549 8.77796 23.1316C8.48353 24.7142 8.33631 26.4441 8.33631 28.3211C8.33631 31.1551 8.68595 33.3818 9.38525 35.0012C10.1213 36.6206 11.0415 37.7616 12.1456 38.4241C13.2866 39.0865 14.4643 39.4178 15.6789 39.4178C16.3782 39.4178 17.1327 39.3074 17.9424 39.0865C18.7889 38.8657 19.6354 38.4241 20.4819 37.7616C21.3652 37.0991 22.1749 36.1606 22.911 34.946L23.8496 35.2772C23.4447 36.639 22.7822 38.0008 21.8621 39.3626C20.942 40.7244 19.7458 41.8469 18.2736 42.7302C16.8014 43.5767 14.998 44 12.8633 44C10.471 44 8.2995 43.4847 6.34884 42.4542C4.43499 41.3869 2.88918 39.7674 1.71143 37.596C0.570476 35.3877 0 32.5537 0 29.094C0 25.7816 0.588878 23.0028 1.76663 20.7577C2.9812 18.4758 4.61901 16.7644 6.68009 15.6234C8.74116 14.4825 11.0783 13.912 13.6914 13.912Z" fill="#4A082E"/>
</svg>
