<svg width="44" height="44" viewBox="0 0 44 44" fill="none" xmlns="http://www.w3.org/2000/svg">
<path d="M33.0013 3.66693L40.3346 11.0003M40.3346 11.0003L33.0013 18.3336M40.3346 11.0003H25.6679M40.3346 31.0203V36.5203C40.3367 37.0308 40.2321 37.5362 40.0275 38.0041C39.823 38.4719 39.523 38.8918 39.1467 39.237C38.7705 39.5822 38.3263 39.845 37.8426 40.0086C37.359 40.1721 36.8464 40.2329 36.3379 40.1869C30.6965 39.5739 25.2774 37.6462 20.5163 34.5586C16.0866 31.7438 12.331 27.9882 9.51626 23.5586C6.41789 18.7758 4.48971 13.3304 3.88793 7.66359C3.84211 7.15662 3.90236 6.64565 4.06484 6.16324C4.22732 5.68082 4.48847 5.23752 4.83167 4.86156C5.17486 4.48561 5.59257 4.18523 6.05821 3.97955C6.52385 3.77387 7.02722 3.66741 7.53626 3.66693H13.0363C13.926 3.65817 14.7885 3.97324 15.4632 4.5534C16.1378 5.13357 16.5784 5.93924 16.7029 6.82026C16.9351 8.58038 17.3656 10.3086 17.9863 11.9719C18.2329 12.6281 18.2863 13.3413 18.1401 14.0269C17.9939 14.7125 17.6542 15.3418 17.1613 15.8403L14.8329 18.1686C17.4428 22.7584 21.2431 26.5587 25.8329 29.1686L28.1613 26.8403C28.6597 26.3473 29.289 26.0077 29.9746 25.8614C30.6603 25.7152 31.3734 25.7686 32.0296 26.0153C33.6929 26.6359 35.4211 27.0665 37.1813 27.2986C38.0718 27.4242 38.8852 27.8728 39.4666 28.559C40.048 29.2452 40.3569 30.1211 40.3346 31.0203Z" stroke="black" stroke-width="3.66667" stroke-linecap="round" stroke-linejoin="round"/>
</svg>
