<svg width="20" height="20" viewBox="0 0 20 20" fill="none" xmlns="http://www.w3.org/2000/svg">
<path d="M18.7509 10.1941C18.7509 9.47471 18.6913 8.94971 18.5624 8.40527H10.1794V11.6525H15.1001C15.0009 12.4595 14.4651 13.6747 13.2746 14.4913L13.2579 14.6001L15.9085 16.6123L16.0921 16.6303C17.7786 15.1039 18.7509 12.858 18.7509 10.1941Z" fill="#4285F4"/>
<path d="M10.1789 18.75C12.5896 18.75 14.6134 17.9722 16.0916 16.6305L13.2741 14.4915C12.5202 15.0068 11.5083 15.3665 10.1789 15.3665C7.81788 15.3665 5.81391 13.8402 5.09956 11.7305L4.99485 11.7392L2.2388 13.8295L2.20276 13.9277C3.671 16.786 6.68688 18.75 10.1789 18.75Z" fill="#34A853"/>
<path d="M5.10014 11.7303C4.91166 11.1858 4.80257 10.6024 4.80257 9.99969C4.80257 9.39688 4.91166 8.81357 5.09023 8.26913L5.08523 8.15313L2.29464 6.0293L2.20334 6.07186C1.59821 7.258 1.25098 8.58994 1.25098 9.99969C1.25098 11.4094 1.59821 12.7413 2.20334 13.9274L5.10014 11.7303Z" fill="#FBBC05"/>
<path d="M10.179 4.63331C11.8556 4.63331 12.9865 5.34303 13.6314 5.93612L16.1512 3.525C14.6036 2.11528 12.5897 1.25 10.179 1.25C6.68688 1.25 3.671 3.21388 2.20276 6.07218L5.08966 8.26944C5.81393 6.15972 7.81788 4.63331 10.179 4.63331Z" fill="#EB4335"/>
</svg>
