<svg width="20" height="20" viewBox="0 0 20 20" fill="none" xmlns="http://www.w3.org/2000/svg">
<path d="M18.75 10C18.75 5.16751 14.8325 1.25 10 1.25C5.16751 1.25 1.25 5.16751 1.25 10C1.25 14.8325 5.16751 18.75 10 18.75C14.8325 18.75 18.75 14.8325 18.75 10Z" fill="#1275B1"/>
<path d="M7.88662 6.05759C7.88662 6.64169 7.38031 7.11519 6.75581 7.11519C6.13128 7.11519 5.625 6.64169 5.625 6.05759C5.625 5.4735 6.13128 5 6.75581 5C7.38031 5 7.88662 5.4735 7.88662 6.05759Z" fill="white"/>
<path d="M5.77979 7.89258H7.71277V13.75H5.77979V7.89258Z" fill="white"/>
<path d="M10.8246 7.89289H8.8916V13.7503H10.8246C10.8246 13.7503 10.8246 11.9063 10.8246 10.7534C10.8246 10.0613 11.0609 9.36627 12.0037 9.36627C13.0692 9.36627 13.0629 10.2719 13.0579 10.9735C13.0514 11.8906 13.0669 12.8265 13.0669 13.7503H14.9999V10.6589C14.9835 8.68495 14.4691 7.77539 12.7769 7.77539C11.772 7.77539 11.149 8.23164 10.8246 8.64439V7.89289Z" fill="white"/>
</svg>
